<?xml version="1.0" encoding="utf-8"?>
<!-- Generator: Adobe Illustrator 23.0.3, SVG Export Plug-In . SVG Version: 6.00 Build 0)  -->
<svg version="1.1" id="Layer_1" xmlns="http://www.w3.org/2000/svg" xmlns:xlink="http://www.w3.org/1999/xlink" x="0px" y="0px"
	 viewBox="0 0 186.9 186.9" style="enable-background:new 0 0 186.9 186.9;" xml:space="preserve">
<style type="text/css">
	.st0{fill:#FFFFFF;}
</style>
<g>
	<circle class="st0" cx="93.4" cy="93.4" r="93.4"/>
</g>
<path d="M67.7,80.8h20.9v1.7H69.7v12.5h17.9v1.7H69.7v13.7h19.2v1.7h-21V80.8H67.7z M90.4,80.8h2.2l9.8,13.7l10-13.7l13.7-17.4
	l-22.4,32.5l11.5,16H113l-10.5-14.5L91.9,112h-2.3l11.7-16L90.4,80.8z M116.1,82.4v-1.7h23.7v1.7h-11V112H127V82.4H116.1z
	 M41.7,80.8H44l32.9,49.4L63.4,112L43.7,83.1L43.5,112h-1.8V80.8z M139.7,109.8c-0.3,0-0.7-0.3-0.7-0.7c0-0.3,0.3-0.7,0.7-0.7
	c0.3,0,0.7,0.3,0.7,0.7C140.3,109.5,140,109.8,139.7,109.8L139.7,109.8z M141.5,107.9h1c0,0.5,0.5,1,1,1c0.7,0,1-0.3,1-1.2v-4.7h1
	v4.8c0,1.3-0.8,2.2-2,2.2C142.3,110,141.5,109.1,141.5,107.9L141.5,107.9z M147,107.9h1c0.2,0.7,0.7,1,1.7,1c0.8,0,1.5-0.5,1.5-1
	c0-0.5-0.3-0.8-1.3-1l-0.8-0.2c-1.2-0.3-1.8-0.8-1.8-1.8c0-1.2,1-2,2.5-2c1.3,0,2.3,0.8,2.3,2h-1c-0.2-0.7-0.7-1-1.3-1
	c-0.8,0-1.3,0.3-1.3,1c0,0.5,0.3,0.8,1.2,1l0.7,0.2c1.3,0.3,2,0.8,2,1.8c0,1.3-1,2.2-2.5,2.2C148,110,147,109.1,147,107.9L147,107.9
	z"/>
</svg>
